<svg xmlns="http://www.w3.org/2000/svg" viewBox="0 0 1280 720">
  <defs>
    <!-- Card shadow filter -->
    <filter id="cardShadow" x="-4%" y="-4%" width="108%" height="112%">
      <feDropShadow dx="0" dy="2" stdDeviation="6" flood-color="#000000" flood-opacity="0.35"/>
    </filter>
    <!-- Icon glow filter -->
    <filter id="iconGlow" x="-20%" y="-20%" width="140%" height="140%">
      <feDropShadow dx="0" dy="0" stdDeviation="4" flood-color="#FF6900" flood-opacity="0.3"/>
    </filter>
    <!-- Title glow -->
    <filter id="titleGlow" x="-5%" y="-20%" width="110%" height="140%">
      <feDropShadow dx="0" dy="0" stdDeviation="8" flood-color="#FF6900" flood-opacity="0.15"/>
    </filter>
    <!-- Subtle inner highlight for cards -->
    <linearGradient id="cardGrad" x1="0" y1="0" x2="0" y2="1">
      <stop offset="0%" stop-color="#2A2A2A"/>
      <stop offset="100%" stop-color="#222222"/>
    </linearGradient>
    <!-- Orange gradient for accent elements -->
    <linearGradient id="orangeGrad" x1="0" y1="0" x2="1" y2="1">
      <stop offset="0%" stop-color="#FF8C33"/>
      <stop offset="100%" stop-color="#FF6900"/>
    </linearGradient>
    <!-- Top bar gradient -->
    <linearGradient id="topBarGrad" x1="0" y1="0" x2="1" y2="0">
      <stop offset="0%" stop-color="#FF6900"/>
      <stop offset="60%" stop-color="#FF8C33"/>
      <stop offset="100%" stop-color="#FF6900" stop-opacity="0"/>
    </linearGradient>
  </defs>

  <!-- Background -->
  <rect width="1280" height="720" fill="#1A1A1A"/>

  <!-- Subtle grid pattern overlay -->
  <g opacity="0.03">
    <line x1="320" y1="0" x2="320" y2="720" stroke="#FFFFFF" stroke-width="1"/>
    <line x1="640" y1="0" x2="640" y2="720" stroke="#FFFFFF" stroke-width="1"/>
    <line x1="960" y1="0" x2="960" y2="720" stroke="#FFFFFF" stroke-width="1"/>
  </g>

  <!-- Top accent bar -->
  <rect x="0" y="0" width="1280" height="3" fill="url(#topBarGrad)"/>

  <!-- Section label -->
  <rect x="48" y="28" width="8" height="8" rx="4" fill="#FF6900"/>
  <text x="64" y="36" font-family="system-ui, -apple-system, 'PingFang SC', 'Microsoft YaHei', sans-serif" font-size="12" fill="#FF6900" font-weight="600" letter-spacing="2">PART 2 / STANDARD FEATURES</text>

  <!-- Title area -->
  <text x="48" y="80" font-family="system-ui, -apple-system, 'PingFang SC', 'Microsoft YaHei', sans-serif" font-size="36" font-weight="bold" fill="#FFFFFF" filter="url(#titleGlow)">12项旗舰配置，全系标配</text>
  <text x="48" y="110" font-family="system-ui, -apple-system, 'PingFang SC', 'Microsoft YaHei', sans-serif" font-size="16" fill="#999999">21.99万起，一项都不少</text>

  <!-- Orange accent line under title -->
  <rect x="48" y="122" width="80" height="3" rx="1.5" fill="#FF6900"/>

  <!-- ====== 4x3 BENTO GRID ====== -->
  <!-- Grid config: x_start=48, gap=16, card_width=284, card_height=148 -->
  <!-- Row y positions: 148, 312, 476 -->
  <!-- Col x positions: 48, 348, 648, 948 -->

  <!-- === ROW 1 === -->

  <!-- Card 1: Laser Radar -->
  <g filter="url(#cardShadow)">
    <rect x="48" y="148" width="284" height="148" rx="12" fill="url(#cardGrad)"/>
    <rect x="48" y="148" width="284" height="148" rx="12" fill="none" stroke="#333333" stroke-width="1"/>
  </g>
  <!-- Icon: scanning radar dish shape -->
  <g filter="url(#iconGlow)" transform="translate(72, 172)">
    <circle cx="20" cy="20" r="20" fill="#FF6900" opacity="0.15"/>
    <path d="M20 8 L20 20 M12 14 A12 12 0 0 1 28 14 M6 10 A18 18 0 0 1 34 10" stroke="#FF6900" stroke-width="2" fill="none" stroke-linecap="round"/>
    <circle cx="20" cy="20" r="3" fill="#FF6900"/>
  </g>
  <text x="72" y="228" font-family="system-ui, -apple-system, 'PingFang SC', 'Microsoft YaHei', sans-serif" font-size="16" font-weight="bold" fill="#FFFFFF">激光雷达</text>
  <text x="72" y="250" font-family="system-ui, -apple-system, 'PingFang SC', 'Microsoft YaHei', sans-serif" font-size="11" fill="#777777">LiDAR</text>
  <text x="72" y="270" font-family="system-ui, -apple-system, 'PingFang SC', 'Microsoft YaHei', sans-serif" font-size="11" fill="#555555">同价位首次全系标配</text>

  <!-- Card 2: 4D mmWave Radar -->
  <g filter="url(#cardShadow)">
    <rect x="348" y="148" width="284" height="148" rx="12" fill="url(#cardGrad)"/>
    <rect x="348" y="148" width="284" height="148" rx="12" fill="none" stroke="#333333" stroke-width="1"/>
  </g>
  <!-- Icon: concentric wave arcs -->
  <g filter="url(#iconGlow)" transform="translate(372, 172)">
    <circle cx="20" cy="20" r="20" fill="#FF6900" opacity="0.15"/>
    <path d="M14 26 L20 14 L26 26" stroke="#FF6900" stroke-width="2" fill="none" stroke-linecap="round" stroke-linejoin="round"/>
    <path d="M10 20 A14 14 0 0 0 30 20" stroke="#FF6900" stroke-width="1.5" fill="none" opacity="0.5"/>
    <path d="M6 18 A18 18 0 0 0 34 18" stroke="#FF6900" stroke-width="1" fill="none" opacity="0.3"/>
  </g>
  <text x="372" y="228" font-family="system-ui, -apple-system, 'PingFang SC', 'Microsoft YaHei', sans-serif" font-size="16" font-weight="bold" fill="#FFFFFF">4D毫米波雷达</text>
  <text x="372" y="250" font-family="system-ui, -apple-system, 'PingFang SC', 'Microsoft YaHei', sans-serif" font-size="11" fill="#777777">4D mmWave Radar</text>
  <text x="372" y="270" font-family="system-ui, -apple-system, 'PingFang SC', 'Microsoft YaHei', sans-serif" font-size="11" fill="#555555">全方位环境感知</text>

  <!-- Card 3: 700TOPS Thor Chip -->
  <g filter="url(#cardShadow)">
    <rect x="648" y="148" width="284" height="148" rx="12" fill="url(#cardGrad)"/>
    <rect x="648" y="148" width="284" height="148" rx="12" fill="none" stroke="#333333" stroke-width="1"/>
  </g>
  <!-- Icon: chip/processor shape -->
  <g filter="url(#iconGlow)" transform="translate(672, 172)">
    <circle cx="20" cy="20" r="20" fill="#FF6900" opacity="0.15"/>
    <rect x="12" y="12" width="16" height="16" rx="2" stroke="#FF6900" stroke-width="2" fill="none"/>
    <line x1="16" y1="8" x2="16" y2="12" stroke="#FF6900" stroke-width="1.5"/>
    <line x1="20" y1="8" x2="20" y2="12" stroke="#FF6900" stroke-width="1.5"/>
    <line x1="24" y1="8" x2="24" y2="12" stroke="#FF6900" stroke-width="1.5"/>
    <line x1="16" y1="28" x2="16" y2="32" stroke="#FF6900" stroke-width="1.5"/>
    <line x1="20" y1="28" x2="20" y2="32" stroke="#FF6900" stroke-width="1.5"/>
    <line x1="24" y1="28" x2="24" y2="32" stroke="#FF6900" stroke-width="1.5"/>
    <line x1="8" y1="16" x2="12" y2="16" stroke="#FF6900" stroke-width="1.5"/>
    <line x1="8" y1="20" x2="12" y2="20" stroke="#FF6900" stroke-width="1.5"/>
    <line x1="8" y1="24" x2="12" y2="24" stroke="#FF6900" stroke-width="1.5"/>
    <line x1="28" y1="16" x2="32" y2="16" stroke="#FF6900" stroke-width="1.5"/>
    <line x1="28" y1="20" x2="32" y2="20" stroke="#FF6900" stroke-width="1.5"/>
    <line x1="28" y1="24" x2="32" y2="24" stroke="#FF6900" stroke-width="1.5"/>
  </g>
  <text x="672" y="228" font-family="system-ui, -apple-system, 'PingFang SC', 'Microsoft YaHei', sans-serif" font-size="16" font-weight="bold" fill="#FFFFFF">700TOPS Thor芯片</text>
  <text x="672" y="250" font-family="system-ui, -apple-system, 'PingFang SC', 'Microsoft YaHei', sans-serif" font-size="11" fill="#777777">NVIDIA Thor SoC</text>
  <text x="672" y="270" font-family="system-ui, -apple-system, 'PingFang SC', 'Microsoft YaHei', sans-serif" font-size="11" fill="#555555">旗舰级智驾算力</text>

  <!-- Card 4: HAD Full-Stack AD -->
  <g filter="url(#cardShadow)">
    <rect x="948" y="148" width="284" height="148" rx="12" fill="url(#cardGrad)"/>
    <rect x="948" y="148" width="284" height="148" rx="12" fill="none" stroke="#333333" stroke-width="1"/>
  </g>
  <!-- Icon: steering wheel / AI brain -->
  <g filter="url(#iconGlow)" transform="translate(972, 172)">
    <circle cx="20" cy="20" r="20" fill="#FF6900" opacity="0.15"/>
    <circle cx="20" cy="20" r="12" stroke="#FF6900" stroke-width="2" fill="none"/>
    <circle cx="20" cy="20" r="3" fill="#FF6900"/>
    <line x1="20" y1="8" x2="20" y2="17" stroke="#FF6900" stroke-width="1.5"/>
    <line x1="10" y1="26" x2="17" y2="21" stroke="#FF6900" stroke-width="1.5"/>
    <line x1="30" y1="26" x2="23" y2="21" stroke="#FF6900" stroke-width="1.5"/>
  </g>
  <text x="972" y="228" font-family="system-ui, -apple-system, 'PingFang SC', 'Microsoft YaHei', sans-serif" font-size="16" font-weight="bold" fill="#FFFFFF">HAD全栈智驾</text>
  <text x="972" y="250" font-family="system-ui, -apple-system, 'PingFang SC', 'Microsoft YaHei', sans-serif" font-size="11" fill="#777777">Full-Stack ADAS</text>
  <text x="972" y="270" font-family="system-ui, -apple-system, 'PingFang SC', 'Microsoft YaHei', sans-serif" font-size="11" fill="#555555">高速/城区NOA全覆盖</text>

  <!-- === ROW 2 === -->

  <!-- Card 5: V6s Plus Motor -->
  <g filter="url(#cardShadow)">
    <rect x="48" y="312" width="284" height="148" rx="12" fill="url(#cardGrad)"/>
    <rect x="48" y="312" width="284" height="148" rx="12" fill="none" stroke="#333333" stroke-width="1"/>
  </g>
  <!-- Icon: motor/lightning bolt -->
  <g filter="url(#iconGlow)" transform="translate(72, 336)">
    <circle cx="20" cy="20" r="20" fill="#FF6900" opacity="0.15"/>
    <polygon points="22,8 14,22 19,22 17,32 26,18 21,18" fill="#FF6900"/>
  </g>
  <text x="72" y="392" font-family="system-ui, -apple-system, 'PingFang SC', 'Microsoft YaHei', sans-serif" font-size="16" font-weight="bold" fill="#FFFFFF">V6s Plus电机</text>
  <text x="72" y="414" font-family="system-ui, -apple-system, 'PingFang SC', 'Microsoft YaHei', sans-serif" font-size="11" fill="#777777">22,000rpm HyperMotor</text>
  <text x="72" y="434" font-family="system-ui, -apple-system, 'PingFang SC', 'Microsoft YaHei', sans-serif" font-size="11" fill="#555555">SiC逆变器极致效率</text>

  <!-- Card 6: Dragon Chassis -->
  <g filter="url(#cardShadow)">
    <rect x="348" y="312" width="284" height="148" rx="12" fill="url(#cardGrad)"/>
    <rect x="348" y="312" width="284" height="148" rx="12" fill="none" stroke="#333333" stroke-width="1"/>
  </g>
  <!-- Icon: chassis/suspension abstract -->
  <g filter="url(#iconGlow)" transform="translate(372, 336)">
    <circle cx="20" cy="20" r="20" fill="#FF6900" opacity="0.15"/>
    <path d="M8 26 L14 16 L20 20 L26 12 L32 22" stroke="#FF6900" stroke-width="2" fill="none" stroke-linecap="round" stroke-linejoin="round"/>
    <circle cx="10" cy="26" r="2.5" fill="#FF6900"/>
    <circle cx="30" cy="22" r="2.5" fill="#FF6900"/>
  </g>
  <text x="372" y="392" font-family="system-ui, -apple-system, 'PingFang SC', 'Microsoft YaHei', sans-serif" font-size="16" font-weight="bold" fill="#FFFFFF">蛟龙底盘</text>
  <text x="372" y="414" font-family="system-ui, -apple-system, 'PingFang SC', 'Microsoft YaHei', sans-serif" font-size="11" fill="#777777">Dragon Chassis</text>
  <text x="372" y="434" font-family="system-ui, -apple-system, 'PingFang SC', 'Microsoft YaHei', sans-serif" font-size="11" fill="#555555">前双叉臂+后五连杆</text>

  <!-- Card 7: 2200MPa Steel -->
  <g filter="url(#cardShadow)">
    <rect x="648" y="312" width="284" height="148" rx="12" fill="url(#cardGrad)"/>
    <rect x="648" y="312" width="284" height="148" rx="12" fill="none" stroke="#333333" stroke-width="1"/>
  </g>
  <!-- Icon: shield shape for safety -->
  <g filter="url(#iconGlow)" transform="translate(672, 336)">
    <circle cx="20" cy="20" r="20" fill="#FF6900" opacity="0.15"/>
    <path d="M20 8 L30 13 L30 22 C30 28 25 33 20 34 C15 33 10 28 10 22 L10 13 Z" stroke="#FF6900" stroke-width="2" fill="none"/>
    <path d="M16 20 L19 23 L25 16" stroke="#FF6900" stroke-width="2" fill="none" stroke-linecap="round" stroke-linejoin="round"/>
  </g>
  <text x="672" y="392" font-family="system-ui, -apple-system, 'PingFang SC', 'Microsoft YaHei', sans-serif" font-size="16" font-weight="bold" fill="#FFFFFF">2200MPa钢结构</text>
  <text x="672" y="414" font-family="system-ui, -apple-system, 'PingFang SC', 'Microsoft YaHei', sans-serif" font-size="11" fill="#777777">Ultra-High Strength Steel</text>
  <text x="672" y="434" font-family="system-ui, -apple-system, 'PingFang SC', 'Microsoft YaHei', sans-serif" font-size="11" fill="#555555">笼式车身超越行业40%</text>

  <!-- Card 8: CTB Battery -->
  <g filter="url(#cardShadow)">
    <rect x="948" y="312" width="284" height="148" rx="12" fill="url(#cardGrad)"/>
    <rect x="948" y="312" width="284" height="148" rx="12" fill="none" stroke="#333333" stroke-width="1"/>
  </g>
  <!-- Icon: battery cell integrated -->
  <g filter="url(#iconGlow)" transform="translate(972, 336)">
    <circle cx="20" cy="20" r="20" fill="#FF6900" opacity="0.15"/>
    <rect x="10" y="12" width="20" height="16" rx="2" stroke="#FF6900" stroke-width="2" fill="none"/>
    <rect x="16" y="9" width="8" height="3" rx="1" fill="#FF6900"/>
    <line x1="15" y1="18" x2="25" y2="18" stroke="#FF6900" stroke-width="1.5"/>
    <line x1="15" y1="22" x2="25" y2="22" stroke="#FF6900" stroke-width="1.5"/>
    <line x1="15" y1="26" x2="25" y2="26" stroke="#FF6900" stroke-width="1.5"/>
  </g>
  <text x="972" y="392" font-family="system-ui, -apple-system, 'PingFang SC', 'Microsoft YaHei', sans-serif" font-size="16" font-weight="bold" fill="#FFFFFF">CTB电池一体化</text>
  <text x="972" y="414" font-family="system-ui, -apple-system, 'PingFang SC', 'Microsoft YaHei', sans-serif" font-size="11" fill="#777777">Cell-to-Body</text>
  <text x="972" y="434" font-family="system-ui, -apple-system, 'PingFang SC', 'Microsoft YaHei', sans-serif" font-size="11" fill="#555555">电池与车身深度融合</text>

  <!-- === ROW 3 === -->

  <!-- Card 9: SiC High Voltage -->
  <g filter="url(#cardShadow)">
    <rect x="48" y="476" width="284" height="148" rx="12" fill="url(#cardGrad)"/>
    <rect x="48" y="476" width="284" height="148" rx="12" fill="none" stroke="#333333" stroke-width="1"/>
  </g>
  <!-- Icon: high voltage / circuit -->
  <g filter="url(#iconGlow)" transform="translate(72, 500)">
    <circle cx="20" cy="20" r="20" fill="#FF6900" opacity="0.15"/>
    <path d="M10 20 L16 20 L18 12 L22 28 L24 20 L30 20" stroke="#FF6900" stroke-width="2" fill="none" stroke-linecap="round" stroke-linejoin="round"/>
  </g>
  <text x="72" y="556" font-family="system-ui, -apple-system, 'PingFang SC', 'Microsoft YaHei', sans-serif" font-size="16" font-weight="bold" fill="#FFFFFF">SiC高压平台</text>
  <text x="72" y="578" font-family="system-ui, -apple-system, 'PingFang SC', 'Microsoft YaHei', sans-serif" font-size="11" fill="#777777">752V / 897V Platform</text>
  <text x="72" y="598" font-family="system-ui, -apple-system, 'PingFang SC', 'Microsoft YaHei', sans-serif" font-size="11" fill="#555555">碳化硅逆变器高效充放</text>

  <!-- Card 10: 4-Piston Brakes -->
  <g filter="url(#cardShadow)">
    <rect x="348" y="476" width="284" height="148" rx="12" fill="url(#cardGrad)"/>
    <rect x="348" y="476" width="284" height="148" rx="12" fill="none" stroke="#333333" stroke-width="1"/>
  </g>
  <!-- Icon: brake disc -->
  <g filter="url(#iconGlow)" transform="translate(372, 500)">
    <circle cx="20" cy="20" r="20" fill="#FF6900" opacity="0.15"/>
    <circle cx="20" cy="20" r="12" stroke="#FF6900" stroke-width="2" fill="none"/>
    <circle cx="20" cy="20" r="5" stroke="#FF6900" stroke-width="1.5" fill="none"/>
    <line x1="20" y1="8" x2="20" y2="15" stroke="#FF6900" stroke-width="1" opacity="0.6"/>
    <line x1="20" y1="25" x2="20" y2="32" stroke="#FF6900" stroke-width="1" opacity="0.6"/>
    <line x1="8" y1="20" x2="15" y2="20" stroke="#FF6900" stroke-width="1" opacity="0.6"/>
    <line x1="25" y1="20" x2="32" y2="20" stroke="#FF6900" stroke-width="1" opacity="0.6"/>
  </g>
  <text x="372" y="556" font-family="system-ui, -apple-system, 'PingFang SC', 'Microsoft YaHei', sans-serif" font-size="16" font-weight="bold" fill="#FFFFFF">四活塞制动卡钳</text>
  <text x="372" y="578" font-family="system-ui, -apple-system, 'PingFang SC', 'Microsoft YaHei', sans-serif" font-size="11" fill="#777777">4-Piston Fixed Calipers</text>
  <text x="372" y="598" font-family="system-ui, -apple-system, 'PingFang SC', 'Microsoft YaHei', sans-serif" font-size="11" fill="#555555">赛道级制动性能</text>

  <!-- Card 11: 265mm Rear Tires -->
  <g filter="url(#cardShadow)">
    <rect x="648" y="476" width="284" height="148" rx="12" fill="url(#cardGrad)"/>
    <rect x="648" y="476" width="284" height="148" rx="12" fill="none" stroke="#333333" stroke-width="1"/>
  </g>
  <!-- Icon: tire/wheel -->
  <g filter="url(#iconGlow)" transform="translate(672, 500)">
    <circle cx="20" cy="20" r="20" fill="#FF6900" opacity="0.15"/>
    <circle cx="20" cy="20" r="13" stroke="#FF6900" stroke-width="2" fill="none"/>
    <circle cx="20" cy="20" r="5" stroke="#FF6900" stroke-width="2" fill="none"/>
    <line x1="20" y1="7" x2="20" y2="15" stroke="#FF6900" stroke-width="1.5"/>
    <line x1="8" y1="15" x2="15" y2="18" stroke="#FF6900" stroke-width="1.5"/>
    <line x1="32" y1="15" x2="25" y2="18" stroke="#FF6900" stroke-width="1.5"/>
    <line x1="11" y1="28" x2="16" y2="23" stroke="#FF6900" stroke-width="1.5"/>
    <line x1="29" y1="28" x2="24" y2="23" stroke="#FF6900" stroke-width="1.5"/>
  </g>
  <text x="672" y="556" font-family="system-ui, -apple-system, 'PingFang SC', 'Microsoft YaHei', sans-serif" font-size="16" font-weight="bold" fill="#FFFFFF">265mm后宽胎</text>
  <text x="672" y="578" font-family="system-ui, -apple-system, 'PingFang SC', 'Microsoft YaHei', sans-serif" font-size="11" fill="#777777">Staggered Rear Tires</text>
  <text x="672" y="598" font-family="system-ui, -apple-system, 'PingFang SC', 'Microsoft YaHei', sans-serif" font-size="11" fill="#555555">更宽接地面积更稳操控</text>

  <!-- Card 12: Ultra Braking Feel -->
  <g filter="url(#cardShadow)">
    <rect x="948" y="476" width="284" height="148" rx="12" fill="url(#cardGrad)"/>
    <rect x="948" y="476" width="284" height="148" rx="12" fill="none" stroke="#333333" stroke-width="1"/>
  </g>
  <!-- Icon: foot/pedal abstract -->
  <g filter="url(#iconGlow)" transform="translate(972, 500)">
    <circle cx="20" cy="20" r="20" fill="#FF6900" opacity="0.15"/>
    <path d="M14 10 L14 24 C14 28 16 30 20 30 L26 30 C28 30 30 28 30 26 L30 22" stroke="#FF6900" stroke-width="2" fill="none" stroke-linecap="round" stroke-linejoin="round"/>
    <path d="M18 18 L22 14 L26 18" stroke="#FF6900" stroke-width="1.5" fill="none" stroke-linecap="round" stroke-linejoin="round"/>
  </g>
  <text x="972" y="556" font-family="system-ui, -apple-system, 'PingFang SC', 'Microsoft YaHei', sans-serif" font-size="16" font-weight="bold" fill="#FFFFFF">超级制动脚感</text>
  <text x="972" y="578" font-family="system-ui, -apple-system, 'PingFang SC', 'Microsoft YaHei', sans-serif" font-size="11" fill="#777777">Ultra Braking Feedback</text>
  <text x="972" y="598" font-family="system-ui, -apple-system, 'PingFang SC', 'Microsoft YaHei', sans-serif" font-size="11" fill="#555555">线性精准踏板响应</text>

  <!-- ====== BOTTOM BAR ====== -->

  <!-- Bottom accent -->
  <rect x="0" y="660" width="1280" height="1" fill="#333333"/>

  <!-- Bottom badge: "12 = ALL STANDARD" -->
  <rect x="48" y="674" width="120" height="28" rx="14" fill="#FF6900" opacity="0.12"/>
  <text x="108" y="693" font-family="system-ui, -apple-system, 'PingFang SC', 'Microsoft YaHei', sans-serif" font-size="12" font-weight="bold" fill="#FF6900" text-anchor="middle">12 = 全系标配</text>

  <!-- Page number -->
  <text x="1232" y="693" font-family="system-ui, -apple-system, 'PingFang SC', 'Microsoft YaHei', sans-serif" font-size="12" fill="#555555" text-anchor="end">05 / 12</text>

  <!-- Xiaomi logo mark (small orange dot cluster) -->
  <g transform="translate(1190, 680)">
    <rect width="16" height="16" rx="3" fill="#FF6900" opacity="0.8"/>
  </g>
</svg>